<?xml version="1.0" encoding="utf-8"?>
<!-- Generator: Adobe Illustrator 23.0.4, SVG Export Plug-In . SVG Version: 6.00 Build 0)  -->
<svg version="1.1" id="Layer_1" xmlns="http://www.w3.org/2000/svg" xmlns:xlink="http://www.w3.org/1999/xlink" x="0px" y="0px"
	 viewBox="0 0 257 73.86" style="enable-background:new 0 0 257 73.86;" xml:space="preserve">
<style type="text/css">
	.st0{fill:#FFFFFF;}
	.st1{fill:#1D252C;}
</style>
<g>
	<g>
		<g>
			<g>
				<path class="st0" d="M72.22,23.58c-2.33,0-4.65-0.41-6.16-1.08l0.51-4.09c1.51,0.59,3.76,1.05,5.21,1.05
					c1.72,0,2.38-0.25,2.38-0.92c0-0.59-0.48-0.84-2.12-1.1l-1.46-0.23c-3.28-0.51-4.76-2-4.76-4.8c0-3.2,2.82-5.25,7.24-5.25
					c2.02,0,3.88,0.34,5.39,1.02l-0.39,4.02c-1-0.41-3.35-0.84-4.71-0.84c-1.76,0-2.59,0.33-2.59,1.02c0,0.56,0.64,0.85,2.43,1.13
					l1.53,0.25c3.04,0.49,4.45,1.97,4.45,4.66C79.15,21.58,76.47,23.58,72.22,23.58z"/>
				<path class="st0" d="M95.67,22.17c-1.23,0.71-3.48,1.41-5.9,1.41c-5.85,0-9.34-3.25-9.34-8.21c0-4.96,3.43-8.21,8.08-8.21
					c4.57,0,8.62,3.01,7.47,9.54H85.47c0.26,1.82,2.22,2.51,4.34,2.51c2.09,0,4.15-0.44,5.16-0.92L95.67,22.17z M91.37,13.67
					c0-1.23-1.03-2.4-2.78-2.4c-1.9,0-2.97,1.1-3.1,2.4H91.37z"/>
				<path class="st0" d="M106.18,7.16c1.81,0,3.25,0.25,5.19,1.05l-0.38,4.4c-1.15-0.48-2.56-0.77-3.89-0.77
					c-2.36,0-4.47,0.87-4.47,3.53c0,2.28,1.86,3.46,4.19,3.46c1.71,0,2.76-0.38,4.24-1.08l0.51,4.53c-1.82,0.87-3.25,1.3-5.32,1.3
					c-5.04,0-8.79-3.35-8.79-8.18C97.46,9.99,101.3,7.16,106.18,7.16z"/>
				<path class="st0" d="M129.66,15.37c0,4.7-3.6,8.21-8.47,8.21c-4.88,0-8.47-3.51-8.47-8.21c0-4.7,3.6-8.21,8.47-8.21
					C126.07,7.16,129.66,10.68,129.66,15.37z M117.84,15.37c0,2.13,1.38,3.63,3.35,3.63c1.97,0,3.35-1.49,3.35-3.63
					s-1.38-3.63-3.35-3.63C119.22,11.74,117.84,13.24,117.84,15.37z"/>
				<path class="st0" d="M142.18,23.26v-8.77c0-1.76-1.4-2.59-2.64-2.59c-1.3,0-2.63,0.84-2.63,2.59v8.77h-5.17V7.49h4.75l0.16,1.66
					c1.12-1.41,3.02-1.99,4.88-1.99c2.97,0,5.83,2.09,5.83,5.85v10.25H142.18z"/>
				<path class="st0" d="M161.52,23.26l-0.16-1.22c-0.94,0.95-2.68,1.54-4.63,1.54c-4.45,0-7.36-3.48-7.36-8.18
					c0-4.73,2.91-8.24,7.36-8.24c2.38,0,3.86,0.84,4.78,1.99V0.1h5.02v23.15H161.52z M154.58,15.37c0,2.1,1.51,3.58,3.48,3.58
					c1.94,0,3.37-1.48,3.37-3.58c0-2.12-1.43-3.58-3.37-3.58C156.07,11.79,154.58,13.19,154.58,15.37z"/>
				<path class="st0" d="M181.32,16.29h-11.97v-4.01h11.97V16.29z"/>
				<path class="st0" d="M189.31,8.85c1.13-1.2,2.91-1.69,4.63-1.69c2.97,0,5.83,2.09,5.83,5.85v10.25h-5.17v-8.77
					c0-1.76-1.4-2.59-2.64-2.59c-1.3,0-2.63,0.84-2.63,2.59v8.77h-5.19V0.13h5.17V8.85z"/>
				<path class="st0" d="M213.91,23.26l-0.16-1.66c-0.9,1.12-2.43,1.99-4.65,1.99c-4.2,0-7.29-3.48-7.29-8.19s3.09-8.23,7.29-8.23
					c2.22,0,3.74,0.89,4.65,1.99l0.16-1.66h5.01v15.76H213.91z M206.93,15.39c0,2.13,1.4,3.63,3.4,3.63c2,0,3.4-1.49,3.4-3.63
					s-1.4-3.61-3.4-3.63C208.33,11.76,206.93,13.26,206.93,15.39z"/>
				<path class="st0" d="M232.29,23.26v-8.77c0-1.76-1.4-2.59-2.64-2.59c-1.3,0-2.63,0.84-2.63,2.59v8.77h-5.17V7.49h4.75l0.16,1.66
					c1.12-1.41,3.02-1.99,4.88-1.99c2.97,0,5.83,2.09,5.83,5.85v10.25H232.29z"/>
				<path class="st0" d="M251.63,23.26l-0.16-1.22c-0.94,0.95-2.68,1.54-4.63,1.54c-4.45,0-7.36-3.48-7.36-8.18
					c0-4.73,2.91-8.24,7.36-8.24c2.38,0,3.86,0.84,4.78,1.99V0.1h5.02v23.15H251.63z M244.69,15.37c0,2.1,1.51,3.58,3.48,3.58
					c1.94,0,3.37-1.48,3.37-3.58c0-2.12-1.43-3.58-3.37-3.58C246.18,11.79,244.69,13.19,244.69,15.37z"/>
				<path class="st1" d="M66.48,57.08V34.75h4.86l0.16,1.66c0.92-1.15,2.4-1.99,4.78-1.99c4.45,0,7.36,3.51,7.36,8.24
					c0,4.7-2.91,8.18-7.36,8.18c-1.95,0-3.69-0.59-4.63-1.49v7.73H66.48z M71.59,42.63c0,2.1,1.43,3.58,3.37,3.58
					c1.97,0,3.48-1.48,3.48-3.58c0-2.18-1.49-3.58-3.48-3.58C73.02,39.05,71.59,40.51,71.59,42.63z"/>
				<path class="st1" d="M91.01,36.11c1.13-1.2,2.91-1.69,4.63-1.69c2.97,0,5.83,2.09,5.83,5.85v10.25H96.3v-8.77
					c0-1.76-1.4-2.59-2.64-2.59c-1.3,0-2.63,0.84-2.63,2.59v8.77h-5.19V27.39h5.17V36.11z"/>
				<path class="st1" d="M120.38,42.63c0,4.7-3.6,8.21-8.47,8.21c-4.88,0-8.47-3.51-8.47-8.21c0-4.7,3.6-8.21,8.47-8.21
					C116.78,34.42,120.38,37.93,120.38,42.63z M108.55,42.63c0,2.13,1.38,3.63,3.35,3.63c1.97,0,3.35-1.49,3.35-3.63
					c0-2.13-1.38-3.63-3.35-3.63C109.93,39,108.55,40.49,108.55,42.63z"/>
				<path class="st1" d="M132.89,50.51v-8.77c0-1.76-1.4-2.59-2.64-2.59c-1.3,0-2.63,0.84-2.63,2.59v8.77h-5.17V34.75h4.75
					l0.16,1.66c1.12-1.41,3.02-1.99,4.88-1.99c2.97,0,5.83,2.09,5.83,5.85v10.25H132.89z"/>
				<path class="st1" d="M155.26,49.43c-1.23,0.71-3.48,1.41-5.9,1.41c-5.85,0-9.34-3.25-9.34-8.21c0-4.96,3.43-8.21,8.08-8.21
					c4.57,0,8.62,3.01,7.47,9.54h-10.51c0.26,1.82,2.22,2.51,4.34,2.51c2.09,0,4.15-0.44,5.16-0.92L155.26,49.43z M150.96,40.92
					c0-1.23-1.03-2.4-2.78-2.4c-1.9,0-2.97,1.1-3.1,2.4H150.96z"/>
				<path class="st1" d="M163.76,50.84c-2.33,0-4.65-0.41-6.16-1.08l0.51-4.09c1.51,0.59,3.76,1.05,5.21,1.05
					c1.72,0,2.38-0.25,2.38-0.92c0-0.59-0.48-0.84-2.12-1.1l-1.46-0.23c-3.28-0.51-4.76-2-4.76-4.79c0-3.2,2.82-5.26,7.24-5.26
					c2.02,0,3.88,0.34,5.39,1.02l-0.39,4.02c-1-0.41-3.35-0.84-4.71-0.84c-1.76,0-2.59,0.33-2.59,1.02c0,0.56,0.64,0.85,2.43,1.13
					l1.53,0.25c3.04,0.49,4.45,1.97,4.45,4.66C170.69,48.84,168.01,50.84,163.76,50.84z"/>
				<path class="st0" d="M175.35,45.19c1.61,0,2.87,1.23,2.87,2.82c0,1.59-1.26,2.82-2.87,2.82c-1.61,0-2.86-1.23-2.86-2.82
					C172.49,46.42,173.74,45.19,175.35,45.19z"/>
				<path class="st0" d="M188.13,34.42c1.81,0,3.25,0.25,5.19,1.05l-0.38,4.4c-1.15-0.48-2.56-0.77-3.89-0.77
					c-2.36,0-4.47,0.87-4.47,3.53c0,2.28,1.86,3.46,4.19,3.46c1.71,0,2.76-0.38,4.24-1.08l0.51,4.53c-1.82,0.87-3.25,1.3-5.32,1.3
					c-5.04,0-8.79-3.35-8.79-8.18C179.41,37.24,183.25,34.42,188.13,34.42z"/>
				<path class="st0" d="M211.61,42.63c0,4.7-3.6,8.21-8.47,8.21c-4.88,0-8.47-3.51-8.47-8.21c0-4.7,3.6-8.21,8.47-8.21
					C208.02,34.42,211.61,37.93,211.61,42.63z M199.79,42.63c0,2.13,1.38,3.63,3.35,3.63c1.97,0,3.35-1.49,3.35-3.63
					c0-2.13-1.38-3.63-3.35-3.63C201.17,39,199.79,40.49,199.79,42.63z"/>
				<path class="st0" d="M234.47,41.74c0-1.76-1.28-2.59-2.58-2.59s-2.66,0.84-2.66,2.59v8.77h-5.17v-8.77
					c0-1.76-1.33-2.59-2.58-2.59c-1.3,0-2.63,0.84-2.63,2.59v8.77h-5.17V34.75h4.75l0.16,1.66c1.12-1.41,3.02-1.99,4.88-1.99
					c2.1,0,4.12,0.89,4.96,2.63c1.28-1.81,3.32-2.63,5.3-2.63c3.04,0,5.91,2,5.91,5.85v10.25h-5.17V41.74z"/>
			</g>
		</g>
		<g>
			<path class="st1" d="M71.59,70.65c-0.75,0.4-1.52,0.59-2.35,0.59c-1.78,0-2.91-1.09-2.91-2.69c0-2,1.68-3.59,3.9-3.59
				c1.42,0,2.04,0.77,2.04,1.63c0,1.14-0.89,1.94-4.71,2c0.06,0.97,0.72,1.5,1.87,1.5c0.69,0,1.31-0.18,2.16-0.57L71.59,70.65z
				 M71.04,66.68c0-0.31-0.29-0.58-0.96-0.58c-1.23,0-2.1,0.58-2.36,1.56C70.62,67.58,71.04,67.06,71.04,66.68z"/>
			<path class="st1" d="M77.55,65.08h1.4l-2.65,2.95l1.74,3.08h-1.4l-1.23-2.26l-1.94,2.26h-1.41l2.72-3.08l-1.72-2.95h1.41
				l1.19,2.12L77.55,65.08z"/>
			<path class="st1" d="M85.77,67.65c0,2.1-1.63,3.59-3.51,3.59c-1.01,0-1.61-0.38-1.95-0.95l-0.53,3.34h-1.22l1.35-8.55h1.22
				l-0.13,0.82c0.53-0.57,1.26-0.95,2.26-0.95C84.75,64.96,85.77,66.07,85.77,67.65z M82.29,70.12c1.27,0,2.24-1.05,2.24-2.3
				c0-0.96-0.6-1.75-1.6-1.75c-1.26,0-2.31,1.11-2.31,2.34C80.62,69.37,81.27,70.12,82.29,70.12z"/>
			<path class="st1" d="M91.79,70.65c-0.75,0.4-1.52,0.59-2.35,0.59c-1.78,0-2.91-1.09-2.91-2.69c0-2,1.68-3.59,3.9-3.59
				c1.42,0,2.04,0.77,2.04,1.63c0,1.14-0.89,1.94-4.71,2c0.06,0.97,0.72,1.5,1.87,1.5c0.69,0,1.31-0.18,2.16-0.57L91.79,70.65z
				 M91.24,66.68c0-0.31-0.29-0.58-0.96-0.58c-1.23,0-2.1,0.58-2.36,1.56C90.82,67.58,91.24,67.06,91.24,66.68z"/>
			<path class="st1" d="M95.24,65.91c0.44-0.66,1.04-0.95,1.69-0.95c0.47,0,0.79,0.15,0.79,0.15l-0.31,1.14
				c-0.06-0.03-0.31-0.14-0.7-0.14c-0.65,0-1.56,0.35-1.77,1.72l-0.52,3.29h-1.23l0.96-6.03h1.23L95.24,65.91z"/>
			<path class="st1" d="M100.03,66.14l-0.48,3.02c-0.1,0.64,0.21,0.96,0.82,0.96c0.28,0,0.68-0.06,0.98-0.14l-0.01,1.07
				c-0.31,0.12-0.85,0.2-1.33,0.2c-1.24,0-1.9-0.71-1.71-1.94l0.5-3.17h-1.05l0.16-1.06H99l0.31-1.94h1.19l-0.31,1.94h1.75
				l-0.16,1.06H100.03z"/>
			<path class="st1" d="M105.3,67.62c1.02,0.22,1.58,0.68,1.58,1.53c0,1.4-1.14,2.09-2.72,2.09c-0.9,0-1.71-0.17-2.18-0.45
				l0.32-1.07c0.56,0.27,1.29,0.43,1.95,0.43c0.98,0,1.42-0.26,1.42-0.78c0-0.35-0.3-0.55-0.97-0.7l-0.85-0.18
				c-0.88-0.19-1.34-0.72-1.34-1.48c0-1.19,1.18-2.05,2.78-2.05c0.72,0,1.47,0.14,1.93,0.36l-0.3,1.08
				c-0.45-0.21-1.12-0.35-1.74-0.35c-0.97,0-1.46,0.3-1.46,0.79c0,0.32,0.26,0.5,0.92,0.64L105.3,67.62z"/>
			<path class="st1" d="M110.66,71.12l0.96-6.03h1.22l-0.96,6.03H110.66z M111.78,63.18c0-0.51,0.38-0.89,0.88-0.89
				c0.4,0,0.65,0.26,0.65,0.65c0,0.52-0.4,0.89-0.89,0.89C112.03,63.83,111.78,63.56,111.78,63.18z"/>
			<path class="st1" d="M119.63,67.45l-0.58,3.66h-1.22l0.54-3.4c0.16-1-0.29-1.58-1.21-1.58c-0.9,0-1.72,0.58-1.88,1.58l-0.54,3.4
				h-1.22l0.96-6.03h1.23l-0.12,0.76c0.25-0.31,0.9-0.89,1.95-0.89C119.17,64.96,119.86,65.99,119.63,67.45z"/>
			<path class="st1" d="M129.05,65.91l0.13-0.82h1.22l-1.35,8.55h-1.22l0.53-3.34c-0.53,0.57-1.26,0.95-2.26,0.95
				c-1.5,0-2.53-1.06-2.53-2.63c0-2.09,1.64-3.66,3.52-3.66C128.1,64.96,128.7,65.33,129.05,65.91z M127.06,66.08
				c-1.27,0-2.25,1.12-2.25,2.36c0,0.96,0.6,1.69,1.61,1.69c1.26,0,2.3-1.03,2.3-2.28C128.72,66.87,128.08,66.08,127.06,66.08z"/>
			<path class="st1" d="M131.39,68.75l0.58-3.66h1.22l-0.53,3.4c-0.16,1,0.28,1.58,1.19,1.58c0.93,0,1.75-0.58,1.92-1.58l0.53-3.4
				h1.22l-0.96,6.03h-1.23l0.12-0.76c-0.25,0.31-0.89,0.89-1.99,0.89C131.85,71.24,131.16,70.21,131.39,68.75z"/>
			<path class="st1" d="M138.24,68.55c0-2.1,1.63-3.59,3.51-3.59c1.01,0,1.61,0.38,1.95,0.95l0.13-0.82h1.22l-0.96,6.03h-1.22
				l0.13-0.82c-0.53,0.57-1.26,0.95-2.26,0.95C139.26,71.24,138.24,70.13,138.24,68.55z M141.72,66.08c-1.27,0-2.24,1.05-2.24,2.3
				c0,0.96,0.6,1.75,1.6,1.75c1.26,0,2.31-1.11,2.31-2.34C143.38,66.82,142.74,66.08,141.72,66.08z"/>
			<path class="st1" d="M148.31,62.27l-1.16,7.33c-0.06,0.36,0.11,0.55,0.41,0.55c0.25,0,0.47-0.04,0.7-0.11l-0.07,1.04
				c-0.23,0.09-0.57,0.17-0.98,0.17c-0.97,0-1.47-0.53-1.31-1.53l1.18-7.45H148.31z"/>
			<path class="st1" d="M149.05,71.12l0.96-6.03h1.22l-0.96,6.03H149.05z M150.18,63.18c0-0.51,0.38-0.89,0.88-0.89
				c0.4,0,0.65,0.26,0.65,0.65c0,0.52-0.4,0.89-0.89,0.89C150.42,63.83,150.18,63.56,150.18,63.18z"/>
			<path class="st1" d="M154.32,66.14l-0.48,3.02c-0.1,0.64,0.21,0.96,0.82,0.96c0.28,0,0.68-0.06,0.98-0.14l-0.01,1.07
				c-0.31,0.12-0.85,0.2-1.33,0.2c-1.24,0-1.9-0.71-1.71-1.94l0.5-3.17h-1.05l0.16-1.06h1.07l0.31-1.94h1.19l-0.31,1.94h1.75
				l-0.16,1.06H154.32z"/>
			<path class="st1" d="M156.83,68.75l0.58-3.66h1.22l-0.53,3.4c-0.16,1,0.28,1.58,1.19,1.58c0.93,0,1.75-0.58,1.92-1.58l0.53-3.4
				h1.22l-0.94,5.94c-0.28,1.74-1.7,2.73-3.7,2.73c-0.88,0-1.74-0.2-2.25-0.51l0.36-1.12c0.58,0.31,1.31,0.5,2.04,0.5
				c1.27,0,2.15-0.54,2.31-1.57l0.11-0.7c-0.25,0.31-0.89,0.89-1.99,0.89C157.29,71.24,156.6,70.21,156.83,68.75z"/>
			<path class="st1" d="M166.82,68.75l0.58-3.66h1.22l-0.53,3.4c-0.16,1,0.28,1.58,1.19,1.58c0.93,0,1.75-0.58,1.92-1.58l0.53-3.4
				h1.22l-0.96,6.03h-1.23l0.12-0.76c-0.25,0.31-0.89,0.89-1.99,0.89C167.27,71.24,166.58,70.21,166.82,68.75z"/>
			<path class="st1" d="M176.69,67.62c1.02,0.22,1.58,0.68,1.58,1.53c0,1.4-1.14,2.09-2.72,2.09c-0.9,0-1.71-0.17-2.18-0.45
				l0.32-1.07c0.56,0.27,1.29,0.43,1.95,0.43c0.98,0,1.42-0.26,1.42-0.78c0-0.35-0.3-0.55-0.97-0.7l-0.85-0.18
				c-0.88-0.19-1.34-0.72-1.34-1.48c0-1.19,1.18-2.05,2.78-2.05c0.72,0,1.47,0.14,1.93,0.36l-0.3,1.08
				c-0.45-0.21-1.12-0.35-1.74-0.35c-0.97,0-1.46,0.3-1.46,0.79c0,0.32,0.26,0.5,0.92,0.64L176.69,67.62z"/>
			<path class="st1" d="M184.46,70.65c-0.75,0.4-1.52,0.59-2.35,0.59c-1.78,0-2.91-1.09-2.91-2.69c0-2,1.68-3.59,3.9-3.59
				c1.42,0,2.04,0.77,2.04,1.63c0,1.14-0.89,1.94-4.71,2c0.06,0.97,0.72,1.5,1.87,1.5c0.69,0,1.31-0.18,2.16-0.57L184.46,70.65z
				 M183.91,66.68c0-0.31-0.29-0.58-0.96-0.58c-1.23,0-2.1,0.58-2.36,1.56C183.49,67.58,183.91,67.06,183.91,66.68z"/>
			<path class="st1" d="M185.89,68.55c0-2.1,1.63-3.59,3.51-3.59c1.01,0,1.61,0.38,1.95,0.95l0.58-3.64h1.22l-1.4,8.85h-1.22
				l0.13-0.82c-0.53,0.57-1.26,0.95-2.26,0.95C186.92,71.24,185.89,70.13,185.89,68.55z M189.38,66.08c-1.27,0-2.24,1.05-2.24,2.3
				c0,0.96,0.6,1.75,1.6,1.75c1.26,0,2.31-1.11,2.31-2.34C191.04,66.82,190.39,66.08,189.38,66.08z"/>
			<path class="st1" d="M202.2,66.08c0.45-0.59,1.28-1.12,2.29-1.12c1.58,0,2.26,1.03,2.03,2.49l-0.58,3.66h-1.23l0.53-3.4
				c0.16-1-0.27-1.58-1.14-1.58c-0.87,0-1.66,0.55-1.84,1.5l-0.55,3.48h-1.23l0.54-3.4c0.16-1-0.27-1.58-1.14-1.58
				c-0.88,0-1.69,0.58-1.85,1.58l-0.54,3.4h-1.23l0.96-6.03h1.23l-0.12,0.76c0.24-0.31,0.89-0.89,1.93-0.89
				C201.29,64.96,201.93,65.38,202.2,66.08z"/>
			<path class="st1" d="M211.27,64.96c1.62,0,2.68,1.18,2.68,2.71c0,1.97-1.7,3.58-3.68,3.58c-1.62,0-2.68-1.18-2.68-2.71
				C207.59,66.57,209.28,64.96,211.27,64.96z M210.46,70.07c1.24,0,2.26-1.01,2.26-2.26c0-0.96-0.64-1.69-1.64-1.69
				c-1.24,0-2.26,1.01-2.26,2.26C208.82,69.34,209.46,70.07,210.46,70.07z"/>
			<path class="st1" d="M216.03,70.29l-0.13,0.82h-1.22l1.4-8.85h1.22l-0.58,3.64c0.53-0.57,1.26-0.95,2.26-0.95
				c1.5,0,2.53,1.06,2.53,2.63c0,2.09-1.64,3.66-3.52,3.66C216.98,71.24,216.38,70.86,216.03,70.29z M218.02,70.12
				c1.27,0,2.25-1.12,2.25-2.36c0-0.96-0.6-1.69-1.61-1.69c-1.26,0-2.3,1.03-2.3,2.28C216.36,69.32,217,70.12,218.02,70.12z"/>
			<path class="st1" d="M222.22,71.12l0.96-6.03h1.22l-0.96,6.03H222.22z M223.35,63.18c0-0.51,0.38-0.89,0.88-0.89
				c0.4,0,0.65,0.26,0.65,0.65c0,0.52-0.4,0.89-0.89,0.89C223.59,63.83,223.35,63.56,223.35,63.18z"/>
			<path class="st1" d="M227.66,62.27l-1.16,7.33c-0.06,0.36,0.11,0.55,0.41,0.55c0.25,0,0.47-0.04,0.7-0.11l-0.07,1.04
				c-0.23,0.09-0.57,0.17-0.98,0.17c-0.97,0-1.47-0.53-1.31-1.53l1.18-7.45H227.66z"/>
			<path class="st1" d="M233.63,70.65c-0.75,0.4-1.52,0.59-2.35,0.59c-1.78,0-2.91-1.09-2.91-2.69c0-2,1.68-3.59,3.9-3.59
				c1.42,0,2.04,0.77,2.04,1.63c0,1.14-0.89,1.94-4.71,2c0.06,0.97,0.72,1.5,1.87,1.5c0.69,0,1.31-0.18,2.16-0.57L233.63,70.65z
				 M233.08,66.68c0-0.31-0.29-0.58-0.96-0.58c-1.23,0-2.1,0.58-2.36,1.56C232.66,67.58,233.08,67.06,233.08,66.68z"/>
			<path class="st1" d="M238.08,67.62c1.02,0.22,1.58,0.68,1.58,1.53c0,1.4-1.14,2.09-2.72,2.09c-0.9,0-1.71-0.17-2.18-0.45
				l0.32-1.07c0.56,0.27,1.29,0.43,1.95,0.43c0.98,0,1.42-0.26,1.42-0.78c0-0.35-0.3-0.55-0.97-0.7l-0.85-0.18
				c-0.88-0.19-1.34-0.72-1.34-1.48c0-1.19,1.18-2.05,2.78-2.05c0.72,0,1.47,0.14,1.93,0.36l-0.3,1.08
				c-0.45-0.21-1.12-0.35-1.74-0.35c-0.97,0-1.46,0.3-1.46,0.79c0,0.32,0.26,0.5,0.92,0.64L238.08,67.62z"/>
		</g>
	</g>
	<g>
		<path class="st1" d="M56.19,44.92l-8.77-10.33c-0.31-0.36-0.86-0.36-1.17,0l-8.73,10.33c-0.42,0.5-0.07,1.26,0.58,1.26h3.73v11.64
			c0,2.22-1.8,4.01-4.01,4.01H18.94c-2.22,0-4.01-1.8-4.01-4.01V41.24c0-0.49-0.6-0.72-0.93-0.36l-3.73,4.12
			c-0.23,0.25-0.63,0.26-0.86,0l-3.79-4.14c-0.33-0.36-0.93-0.13-0.93,0.36v16.59c0,7.87,6.38,14.25,14.25,14.25h18.88
			c7.87,0,14.25-6.38,14.25-14.25V46.18h3.54C56.26,46.18,56.61,45.42,56.19,44.92z"/>
		<path class="st1" d="M0.54,30.33l8.77,10.33c0.31,0.36,0.86,0.36,1.17,0l8.73-10.33c0.42-0.5,0.07-1.26-0.58-1.26H14.9V17.43
			c0-2.22,1.8-4.01,4.01-4.01H37.8c2.22,0,4.01,1.8,4.01,4.01v16.58c0,0.49,0.6,0.72,0.93,0.36l3.74-4.13
			c0.23-0.25,0.62-0.25,0.85,0l3.79,4.15c0.33,0.36,0.93,0.13,0.93-0.36V17.43c0-7.87-6.38-14.25-14.25-14.25H18.91
			c-7.87,0-14.25,6.38-14.25,14.25v11.64H1.12C0.47,29.08,0.12,29.84,0.54,30.33z"/>
		<g>
			<path class="st0" d="M36.3,58.02H20.11c-0.96,0-1.75-0.78-1.75-1.75V35.06c0-0.52,0.42-0.94,0.94-0.94s0.94,0.42,0.94,0.94v21.08
				h15.91v-6.97c0-0.52,0.42-0.94,0.94-0.94c0.52,0,0.94,0.42,0.94,0.94v7.11C38.05,57.24,37.27,58.02,36.3,58.02z"/>
			<path class="st0" d="M37.35,41.48c-0.52,0-0.94-0.42-0.94-0.94V19.01H20.49v7.25c0,0.52-0.42,0.94-0.94,0.94
				s-0.94-0.42-0.94-0.94v-7.38c0-0.96,0.78-1.75,1.75-1.75h16.19c0.96,0,1.75,0.78,1.75,1.75v21.67
				C38.29,41.06,37.87,41.48,37.35,41.48z"/>
			<path class="st0" d="M34.01,28.55c-0.24,0-0.48-0.09-0.67-0.28l-6.06-6.06c-0.37-0.37-0.37-0.97,0-1.33
				c0.37-0.37,0.97-0.37,1.33,0l6.06,6.06c0.37,0.37,0.37,0.97,0,1.33C34.49,28.46,34.25,28.55,34.01,28.55z"/>
			<path class="st0" d="M34.14,23.74c-0.24,0-0.48-0.09-0.67-0.28l-1.57-1.57c-0.37-0.37-0.37-0.97,0-1.33
				c0.37-0.37,0.97-0.37,1.33,0l1.57,1.57c0.37,0.37,0.37,0.97,0,1.33C34.62,23.65,34.38,23.74,34.14,23.74z"/>
		</g>
	</g>
</g>
</svg>
